<?xml version="1.0" standalone="no"?>
<!DOCTYPE svg PUBLIC "-//W3C//DTD SVG 20010904//EN"
 "http://www.w3.org/TR/2001/REC-SVG-20010904/DTD/svg10.dtd">
<svg version="1.0" xmlns="http://www.w3.org/2000/svg"
 width="720.000000pt" height="720.000000pt" viewBox="0 0 720.000000 720.000000"
 preserveAspectRatio="xMidYMid meet">
<metadata>
Created by potrace 1.11, written by Peter Selinger 2001-2013
</metadata>
<g transform="translate(0.000000,720.000000) scale(0.100000,-0.100000)"
fill="#000000" stroke="none">
<path d="M0 3600 l0 -3600 3600 0 3600 0 0 3600 0 3600 -3600 0 -3600 0 0
-3600z m1933 2746 c81 -16 142 -38 168 -62 15 -14 37 -15 166 -7 170 11 390 1
508 -23 306 -62 553 -211 686 -413 157 -240 181 -532 69 -861 -118 -348 -450
-775 -818 -1052 -52 -39 -90 -74 -85 -78 4 -4 44 -31 88 -61 103 -69 288 -253
352 -349 95 -142 161 -298 195 -455 20 -96 15 -293 -11 -412 -62 -288 -182
-509 -400 -735 -323 -337 -777 -542 -1341 -608 -121 -14 -423 -14 -518 -1
-200 30 -438 100 -519 154 -111 74 -126 197 -54 452 23 83 119 425 213 760 93
336 267 954 384 1375 118 421 269 959 335 1195 66 237 123 438 125 448 3 9 3
17 -1 17 -11 0 -156 -114 -235 -185 -89 -79 -122 -98 -171 -98 -86 0 -140 70
-160 206 -13 85 -1 194 25 246 25 48 288 184 577 300 l106 42 29 61 c48 100
113 154 191 157 12 1 55 -5 96 -13z m4228 -79 c163 -43 292 -121 420 -254 77
-80 113 -131 163 -231 91 -180 130 -363 129 -607 0 -185 -16 -276 -85 -482
-186 -560 -608 -1024 -1192 -1313 -267 -132 -515 -202 -836 -236 -85 -9 -156
-17 -157 -18 -1 -1 -25 -112 -52 -246 -152 -745 -257 -1141 -361 -1356 -46
-96 -117 -175 -181 -203 -59 -26 -183 -40 -261 -29 -75 10 -142 46 -216 115
l-57 53 46 43 c65 59 114 127 165 229 109 217 151 350 314 988 141 551 314
1212 505 1925 169 634 275 1029 281 1049 5 13 -9 8 -56 -24 -68 -46 -283 -224
-315 -260 -11 -12 -60 -59 -109 -103 l-89 -82 -46 51 c-62 68 -108 163 -120
246 -18 128 12 168 235 315 249 163 482 272 740 347 152 44 331 81 454 95 52
6 111 13 130 15 19 2 130 3 245 1 187 -2 220 -5 306 -28z"/>
<path d="M2305 5999 c-58 -8 -254 -54 -261 -62 -1 -1 -9 -24 -17 -52 -8 -27
-44 -144 -80 -260 -208 -668 -497 -1695 -497 -1764 0 -5 27 8 60 30 168 113
402 156 645 119 l75 -11 63 44 c210 150 423 416 563 702 109 223 161 408 171
600 23 467 -249 714 -722 654z"/>
<path d="M1347 3475 c-91 -370 -188 -805 -301 -1345 -58 -278 -108 -515 -111
-527 -8 -33 27 -51 140 -73 169 -35 337 -23 540 35 518 150 952 601 1073 1117
66 277 52 469 -48 668 -57 114 -166 239 -264 306 l-37 25 -102 -49 c-230 -113
-442 -185 -542 -185 -84 0 -129 18 -191 75 -49 45 -70 80 -89 143 -12 38 -13
36 -68 -190z"/>
<path d="M5463 6016 c-78 -15 -168 -43 -284 -88 l-75 -29 33 -37 c18 -19 35
-49 38 -66 4 -20 -19 -131 -65 -321 -206 -841 -334 -1404 -403 -1785 -30 -162
-53 -297 -50 -299 7 -9 210 41 340 84 396 131 792 419 1026 745 75 106 191
333 232 455 64 188 102 462 91 645 -17 293 -148 519 -363 628 -130 67 -366 97
-520 68z"/>
</g>
</svg>
